<?xml version="1.0" encoding="utf-8"?>
<!-- Generator: Adobe Illustrator 25.2.3, SVG Export Plug-In . SVG Version: 6.00 Build 0)  -->
<svg version="1.1" id="Capa_1" xmlns="http://www.w3.org/2000/svg" xmlns:xlink="http://www.w3.org/1999/xlink" x="0px" y="0px"
	 viewBox="0 0 99 99" style="enable-background:new 0 0 99 99;" xml:space="preserve">
<g>
	<path d="M65.1,12.3c0,0-1.1,0.3-2.9,0.9c-0.3-1-0.8-2.2-1.4-3.4c-2-3.9-5.1-6-8.7-6l0,0c-0.2,0-0.5,0-0.8,0.1
		c-0.1-0.2-0.2-0.2-0.3-0.4c-1.6-1.7-3.6-2.5-6-2.4c-4.7,0.2-9.4,3.5-13.2,9.6c-2.7,4.2-4.7,9.6-5.2,13.7c-5.4,1.6-9.2,2.8-9.2,2.9
		c-2.7,0.9-2.8,0.9-3.1,3.5c-0.5,2-7.6,57.1-7.6,57.1L65.8,98V12.2C65.5,12.2,65.3,12.2,65.1,12.3z M51.4,16.5
		c-3.1,0.9-6.6,2-9.9,3.1c0.9-3.7,2.8-7.4,5-9.8c0.9-0.9,2-1.9,3.4-2.5C51.2,10.1,51.5,14,51.4,16.5z M45.1,4.1c1.1,0,2,0.2,2.8,0.7
		c-1.3,0.6-2.5,1.6-3.7,2.8c-3,3.2-5.2,8.2-6.2,13c-2.8,0.9-5.6,1.7-8.2,2.5C31.5,15.7,37.8,4.3,45.1,4.1z M35.9,47.2
		c0.3,5,13.5,6.1,14.3,17.9c0.5,9.3-4.9,15.7-12.8,16.1c-9.6,0.6-14.8-5-14.8-5l2-8.6c0,0,5.2,4,9.5,3.7c2.7-0.2,3.8-2.4,3.7-4
		c-0.4-6.6-11.2-6.2-11.9-17c-0.6-9,5.3-18.2,18.5-19c5.1-0.3,7.7,0.9,7.7,0.9l-3,11.3c0,0-3.4-1.6-7.4-1.3
		C35.9,42.6,35.8,46.3,35.9,47.2z M54.6,15.6c0-2.3-0.3-5.7-1.4-8.5c3.6,0.7,5.3,4.7,6.1,7.1C57.8,14.6,56.3,15.1,54.6,15.6z"/>
	<path d="M67.8,97.7l24.6-6.1c0,0-10.6-71.5-10.6-71.9s-0.5-0.8-0.9-0.8c-0.4,0-7.3-0.2-7.3-0.2s-4.2-4.1-5.8-5.6V97.7z"/>
</g>
</svg>
